<svg width="173" height="48" viewBox="0 0 173 48" fill="none" xmlns="http://www.w3.org/2000/svg">
<path d="M56.7055 32.1326V21.5725H45.0155V32.1326H41.9421V8.49548H45.0155V18.9461H56.7055V8.49548H59.7789V32.1326H56.7055Z" fill="white"/>
<path d="M70.4261 32.5156C65.5965 32.5156 61.8096 29.0138 61.8096 24.0347C61.8096 19.0556 65.5965 15.4991 70.4261 15.4991C75.2557 15.4991 78.9877 19.0009 78.9877 24.0347C78.9877 29.0138 75.2557 32.5156 70.4261 32.5156ZM70.4261 18.0707C67.2429 18.0707 64.6086 20.5329 64.6086 24.1441C64.6086 27.7006 67.2429 30.1628 70.4261 30.1628C73.5544 30.1628 76.1887 27.7553 76.1887 24.1441C76.1887 20.5329 73.6093 18.0707 70.4261 18.0707Z" fill="white"/>
<path d="M101.819 32.1326V21.5178C101.819 19.6574 100.941 18.016 98.0867 18.016C95.2877 18.016 94.1901 19.6027 94.1901 21.5178V32.1326H91.3911V21.5178C91.3911 19.6574 90.5678 18.016 87.6591 18.016C84.8601 18.016 83.7624 19.6027 83.7624 21.5178V32.1326H81.0183V16.0462H83.5978V18.1801H83.6527C84.2015 16.8122 85.6284 15.6632 88.4274 15.6632C90.513 15.6632 92.4338 16.5386 93.2571 18.2348C94.0254 16.8122 96.0012 15.6632 98.4709 15.6632C102.093 15.6632 104.508 17.7971 104.508 21.2989V32.1873H101.819V32.1326Z" fill="white"/>
<path d="M119.765 24.5271H109.228C109.228 27.1535 111.423 30.2176 115.429 30.2176C117.405 30.2176 118.942 29.6704 120.149 28.8497L119.82 31.4213C118.668 32.0779 117.241 32.5156 115.1 32.5156C110.49 32.5156 106.484 29.0685 106.484 24.0894C106.484 18.782 110.545 15.6085 114.387 15.6085C118.832 15.6085 121.357 18.7273 121.357 21.7914V22.8857L119.765 24.5271ZM114.606 17.9613C112.191 17.9613 109.886 19.9858 109.447 22.448H118.668C118.722 22.2838 118.722 22.1197 118.722 21.9555C118.722 20.0405 117.241 17.9613 114.606 17.9613Z" fill="white"/>
<path d="M139.139 19.4933H125.473V8.33136H123.991V32.1326H125.473V20.9159H139.139V32.1326H140.675V8.33136H139.139V19.4933Z" fill="white"/>
<path d="M154.616 26.9346C154.616 29.561 152.475 31.3666 149.237 31.3666C146.054 31.3666 144.133 29.6704 144.133 26.9346V15.6632H142.706V26.9893C142.706 30.4364 145.231 32.625 149.127 32.625C151.268 32.625 153.737 31.859 154.67 30.1081V32.0779H156.042V15.6085H154.616V26.9346Z" fill="white"/>
<path d="M164.44 15.6085C162.409 15.6085 160.653 16.2104 159.5 17.25V6.79932H158.073V30.7647L158.128 30.8194C159.116 31.476 161.256 32.5703 164.33 32.5703C169.324 32.5703 172.946 29.0138 172.946 24.0894C172.891 19.2197 169.269 15.6085 164.44 15.6085ZM171.519 24.0894C171.519 28.2478 168.501 31.3119 164.275 31.3119C162.299 31.3119 160.433 30.6006 159.445 29.9987V18.782C159.884 18.2896 161.586 16.867 164.385 16.867C168.446 16.867 171.519 19.9858 171.519 24.0894Z" fill="white"/>
<path d="M76.7923 44.0604C76.7923 44.717 76.7923 45.2642 76.7374 45.5377C76.7374 45.7566 76.6825 45.9208 76.5179 45.9208C76.463 45.9208 76.3532 45.9755 76.2983 45.9755C76.2435 45.9755 76.1886 45.9755 76.1886 46.0302C76.1886 46.0849 76.2435 46.0849 76.2983 46.0849C76.4081 46.0849 76.6276 46.0849 76.7374 46.0849C76.9021 46.0849 77.0667 46.0849 77.1216 46.0849C77.3411 46.0849 77.5058 46.0849 77.8351 46.0849C78.1095 46.0849 78.4936 46.1396 78.9876 46.1396C79.262 46.1396 79.3169 46.1396 79.3718 45.9755C79.4266 45.8113 79.4815 45.3736 79.4815 45.2095C79.4815 45.1547 79.4815 45.1 79.4266 45.1C79.3718 45.1 79.3718 45.1547 79.3718 45.2095C79.3169 45.483 79.262 45.6472 79.0425 45.7019C78.8778 45.8113 78.6034 45.8113 78.4388 45.8113C77.7253 45.8113 77.6704 45.7019 77.6155 45.2095C77.6155 44.9906 77.6155 44.3887 77.6155 44.1151V43.568C77.6155 43.5133 77.6155 43.5133 77.6704 43.5133C77.835 43.5133 78.4936 43.5133 78.6034 43.5133C78.8229 43.568 78.9327 43.6774 78.9876 43.7868C78.9876 43.8963 78.9876 43.951 78.9876 44.0604C78.9876 44.1151 78.9876 44.1151 79.0425 44.1151C79.0973 44.1151 79.0973 44.0604 79.0973 44.0057C79.0973 43.951 79.0973 43.6774 79.0973 43.5133C79.0973 43.185 79.1522 43.0756 79.1522 43.0208C79.1522 42.9661 79.1522 42.9661 79.0973 42.9661C79.0425 42.9661 79.0425 43.0208 78.9876 43.0755C78.9327 43.1303 78.8229 43.185 78.6583 43.185C78.4936 43.185 77.7253 43.185 77.5606 43.185C77.5058 43.185 77.5058 43.1303 77.5058 43.1303V41.3794C77.5058 41.3247 77.5058 41.3247 77.5606 41.3247C77.6704 41.3247 78.3839 41.3247 78.4936 41.3247C78.8229 41.3794 78.8778 41.4341 78.9327 41.5982C78.9876 41.7077 78.9876 41.8171 78.9876 41.8718C78.9876 41.9265 78.9876 41.9812 79.0425 41.9812C79.0973 41.9812 79.0973 41.9265 79.0973 41.9265C79.0973 41.8171 79.1522 41.5435 79.1522 41.4888C79.1522 41.1605 79.2071 41.1058 79.2071 41.0511C79.2071 40.9964 79.2071 40.9964 79.1522 40.9964C79.0973 40.9964 79.0973 40.9964 79.0425 40.9964C78.9876 40.9964 78.8778 41.0511 78.768 41.0511C78.6583 41.0511 77.2862 41.0511 77.0667 41.0511C76.9569 41.0511 76.7923 41.0511 76.6276 41.0511C76.463 41.0511 76.2435 41.0511 76.0788 41.0511C75.9691 41.0511 75.9142 41.0511 75.9142 41.1058C75.9142 41.1605 75.969 41.1605 76.0239 41.1605C76.1337 41.1605 76.2435 41.1605 76.2983 41.1605C76.5179 41.2152 76.5728 41.3246 76.5728 41.5435C76.5728 41.7624 76.5728 41.9812 76.5728 43.0208V44.0604H76.7923ZM73.2249 46.1943C73.664 46.1943 74.1579 46.1396 74.4323 46.0302C74.5421 45.9755 74.5421 45.9207 74.597 45.8113C74.6519 45.5925 74.7616 44.9906 74.7616 44.8812C74.7616 44.8264 74.7616 44.7717 74.7068 44.7717C74.6519 44.7717 74.6519 44.7717 74.597 44.9359C74.597 45.0453 74.4872 45.2642 74.3775 45.3736C74.1031 45.7019 73.7189 45.7566 73.1701 45.7566C72.2919 45.7566 71.0296 44.9359 71.0296 43.2944C71.0296 42.6378 71.1394 41.9812 71.6333 41.4888C71.9078 41.2152 72.2919 41.0511 72.8957 41.0511C73.4994 41.0511 74.0482 41.2152 74.2677 41.4888C74.4324 41.6529 74.5421 41.9265 74.5421 42.1454C74.5421 42.2548 74.5421 42.3095 74.597 42.3095C74.6519 42.3095 74.6519 42.2548 74.6519 42.1454C74.6519 41.9812 74.6519 41.5982 74.6519 41.3794C74.6519 41.1605 74.7068 41.0511 74.7068 40.9964C74.7068 40.9416 74.7068 40.8869 74.597 40.8869C74.3775 40.8869 74.1579 40.8322 73.9384 40.7775C73.6091 40.7228 73.3896 40.7228 72.9505 40.7228C71.9626 40.7228 71.3041 40.9964 70.8101 41.4888C70.1515 42.0907 70.0418 42.9114 70.0418 43.4038C70.0418 44.0604 70.2064 44.8812 70.865 45.4283C71.5236 45.9755 72.2919 46.1943 73.2249 46.1943ZM67.2428 44.0604C67.2428 44.717 67.2428 45.2642 67.1879 45.5925C67.1879 45.8113 67.133 45.9208 66.9683 45.9208C66.9135 45.9208 66.8037 45.9208 66.7488 45.9208C66.6939 45.9208 66.6391 45.9208 66.6391 45.9755C66.6391 46.0302 66.6939 46.0302 66.7488 46.0302C67.0232 46.0302 67.4623 46.0302 67.5721 46.0302C67.7367 46.0302 68.1758 46.0302 68.6148 46.0302C68.6697 46.0302 68.7246 46.0302 68.7246 45.9755C68.7246 45.9208 68.6697 45.9208 68.6148 45.9208C68.5051 45.9208 68.3404 45.9208 68.2855 45.9208C68.066 45.866 68.0111 45.7566 68.0111 45.5925C67.9562 45.3189 67.9562 44.7717 67.9562 44.0604V42.8567C67.9562 41.8171 67.9562 41.5982 67.9562 41.3794C67.9562 41.1605 68.0111 41.0511 68.1758 40.9964C68.2306 40.9964 68.3404 40.9964 68.3953 40.9964C68.4502 40.9964 68.5051 40.9964 68.5051 40.9416C68.5051 40.8869 68.4502 40.8869 68.3404 40.8869C68.066 40.8869 67.6818 40.8869 67.5172 40.8869C67.2976 40.8869 66.9135 40.8869 66.6391 40.8869C66.5293 40.8869 66.4744 40.8869 66.4744 40.9416C66.4744 40.9964 66.5293 40.9964 66.5842 40.9964C66.6391 40.9964 66.7488 40.9964 66.8037 41.0511C66.9684 41.1058 67.0232 41.2152 67.0232 41.4341C67.0232 41.6529 67.0232 41.8718 67.0232 42.9114V44.0604H67.2428ZM61.2606 42.7473C61.2606 42.2001 61.2606 41.5982 61.2606 41.3794C61.2606 41.3247 61.2606 41.2699 61.3155 41.2152C61.3704 41.1605 61.5899 41.1605 61.7545 41.1605C62.3034 41.1605 63.0717 41.2699 63.6754 41.8718C63.9498 42.1454 64.334 42.7472 64.334 43.6227C64.334 44.334 64.2242 44.9906 63.7852 45.3736C63.401 45.7566 62.9071 45.866 62.2485 45.866C61.6997 45.866 61.4801 45.7019 61.3704 45.5925C61.3155 45.5377 61.3155 45.2642 61.3155 45.0453C61.3155 44.9359 61.3155 44.3887 61.3155 43.6227V42.7473H61.2606ZM60.4374 44.0604C60.4374 44.717 60.4374 45.2642 60.3825 45.5377C60.3825 45.7566 60.3276 45.9208 60.1629 45.9208C60.1081 45.9208 59.9983 45.9755 59.9434 45.9755C59.8885 45.9755 59.8336 45.9755 59.8336 46.0302C59.8336 46.0849 59.8885 46.0849 59.9434 46.0849C60.0532 46.0849 60.2727 46.0849 60.3825 46.0849C60.5471 46.0849 60.7118 46.0849 60.7667 46.0849C60.9313 46.0849 61.1508 46.0849 61.4252 46.1396C61.6997 46.1396 61.9741 46.1943 62.1936 46.1943C63.4559 46.1943 64.1145 45.7019 64.4438 45.3736C64.8279 44.9906 65.1572 44.334 65.1572 43.4586C65.1572 42.6378 64.8279 42.0359 64.4986 41.7077C63.7852 40.9416 62.6327 40.9416 61.8094 40.9416C61.4252 40.9416 60.9862 40.9416 60.7667 40.9416C60.602 40.9416 60.1629 40.9416 59.7788 40.9416C59.669 40.9416 59.6141 40.9416 59.6141 40.9964C59.6141 41.0511 59.669 41.0511 59.7239 41.0511C59.8337 41.0511 59.9434 41.0511 59.9983 41.0511C60.2178 41.1058 60.2727 41.2152 60.2727 41.4341C60.2727 41.6529 60.2727 41.8718 60.2727 42.9114V44.0604H60.4374ZM53.7966 43.8963C53.7966 44.8811 54.071 45.4283 54.4003 45.7566C54.8942 46.1943 55.5528 46.249 55.8821 46.249C56.3212 46.249 56.8151 46.1943 57.3091 45.7566C57.8579 45.2642 57.9677 44.4434 57.9677 43.6774V42.9114C57.9677 41.8718 57.9677 41.6529 57.9677 41.4341C57.9677 41.2152 58.0225 41.1058 58.2421 41.0511C58.2969 41.0511 58.3518 41.0511 58.4616 41.0511C58.5165 41.0511 58.5714 41.0511 58.5714 40.9964C58.5714 40.9416 58.5165 40.9416 58.4067 40.9416C58.1323 40.9416 57.6932 40.9416 57.6384 40.9416C57.6384 40.9416 57.1993 40.9416 56.87 40.9416C56.7602 40.9416 56.7054 40.9416 56.7054 40.9964C56.7054 41.0511 56.7602 41.0511 56.8151 41.0511C56.87 41.0511 56.9798 41.0511 57.0347 41.0511C57.2542 41.1058 57.3091 41.2152 57.3091 41.4341C57.3091 41.6529 57.3091 41.8718 57.3091 42.9114V43.7868C57.3091 44.4982 57.3091 45.1547 56.9249 45.5377C56.6505 45.8113 56.3212 45.9208 55.9919 45.9208C55.7724 45.9208 55.4431 45.9208 55.1687 45.6472C54.8394 45.3736 54.6198 44.9359 54.6198 43.951V42.9661C54.6198 41.9265 54.6198 41.7077 54.6198 41.4888C54.6198 41.2699 54.6747 41.1605 54.8942 41.1058C55.004 41.1058 55.004 41.1058 55.1138 41.1058C55.1687 41.1058 55.2235 41.1058 55.2235 41.0511C55.2235 40.9964 55.1687 40.9964 55.0589 40.9964C54.8394 40.9964 54.4003 40.9964 54.2357 40.9964C54.0161 40.9964 53.6319 40.9964 53.2478 40.9964C53.138 40.9964 53.0831 40.9964 53.0831 41.0511C53.0831 41.1058 53.138 41.1058 53.1929 41.1058C53.3027 41.1058 53.4124 41.1058 53.4673 41.1058C53.6868 41.1605 53.7417 41.2699 53.7417 41.4888C53.7417 41.7077 53.7417 41.9265 53.7417 42.9661V43.8963H53.7966ZM50.6683 44.8812C50.6683 46.249 50.6683 46.9603 50.1744 47.4528C50.0646 47.6169 49.9548 47.6716 49.8451 47.7264C49.7353 47.7811 49.6804 47.8358 49.6804 47.8358C49.6804 47.8905 49.6804 47.8905 49.7353 47.8905C49.7902 47.8905 49.8451 47.8905 49.8451 47.8358C50.0097 47.7811 50.0646 47.7264 50.1744 47.6717C50.833 47.2886 51.1622 46.7962 51.3269 46.3585C51.4915 45.9755 51.4915 45.5377 51.4915 45.1547C51.4915 44.8264 51.4915 44.4981 51.4915 44.1698V42.9114C51.4915 41.8718 51.4915 41.6529 51.4915 41.4341C51.4915 41.2152 51.5464 41.1058 51.7659 41.0511C51.8208 41.0511 51.8757 41.0511 51.9855 41.0511C52.0404 41.0511 52.0952 41.0511 52.0952 40.9964C52.0952 40.9416 52.0404 40.9416 51.9306 40.9416C51.6562 40.9416 51.2171 40.9416 51.1074 40.9416C50.9427 40.9416 50.5037 40.9416 50.1744 40.9416C50.0646 40.9416 50.0097 40.9416 50.0097 40.9964C50.0097 41.0511 50.0646 41.0511 50.1195 41.0511C50.2292 41.0511 50.339 41.0511 50.3939 41.0511C50.6134 41.1058 50.6683 41.2152 50.6683 41.4341C50.6683 41.6529 50.6683 41.8718 50.6683 42.9114V44.8812Z" fill="white"/>
<path d="M121.412 45.866C120.094 45.866 119.326 44.717 119.326 43.2944C119.326 41.5435 120.204 41.1058 120.973 41.1058C122.07 41.1058 122.948 42.0907 122.948 43.6227C122.948 45.5925 121.851 45.866 121.412 45.866ZM121.137 46.1943C122.839 46.1943 123.936 44.9359 123.936 43.3491C123.936 41.7624 122.893 40.7228 121.192 40.7228C119.161 40.7228 118.393 42.2548 118.393 43.4586C118.393 44.717 119.161 46.1943 121.137 46.1943ZM115.759 44.8812C115.759 46.249 115.759 46.9056 115.265 47.4528C115.155 47.6169 115.045 47.6716 114.935 47.7264C114.826 47.7811 114.771 47.8358 114.771 47.8358C114.771 47.8905 114.771 47.8905 114.826 47.8905C114.881 47.8905 114.935 47.8905 114.935 47.8358C115.1 47.7811 115.155 47.7264 115.265 47.6717C115.923 47.2886 116.253 46.7962 116.417 46.3585C116.527 45.9755 116.582 45.5377 116.582 45.1547C116.582 44.8264 116.582 44.4981 116.582 44.1698V42.9114C116.582 41.8718 116.582 41.6529 116.582 41.4341C116.582 41.2152 116.637 41.1058 116.856 41.0511C116.911 41.0511 116.966 41.0511 117.076 41.0511C117.131 41.0511 117.186 41.0511 117.186 40.9964C117.186 40.9416 117.131 40.9416 117.021 40.9416C116.747 40.9416 116.308 40.9416 116.198 40.9416C116.033 40.9416 115.594 40.9416 115.265 40.9416C115.155 40.9416 115.1 40.9416 115.1 40.9964C115.1 41.0511 115.155 41.0511 115.21 41.0511C115.32 41.0511 115.429 41.0511 115.484 41.0511C115.704 41.1058 115.759 41.2152 115.759 41.4341C115.759 41.6529 115.759 41.8718 115.759 42.9114V44.8812ZM109.118 43.8963C109.118 44.8811 109.392 45.4283 109.722 45.7566C110.216 46.1943 110.874 46.249 111.203 46.249C111.643 46.249 112.136 46.1943 112.63 45.7566C113.179 45.2642 113.289 44.4434 113.289 43.6774V42.9114C113.289 41.8718 113.289 41.6529 113.289 41.4341C113.289 41.2152 113.344 41.1058 113.563 41.0511C113.618 41.0511 113.673 41.0511 113.783 41.0511C113.838 41.0511 113.893 41.0511 113.893 40.9964C113.893 40.9416 113.838 40.9416 113.728 40.9416C113.454 40.9416 113.069 40.9416 112.96 40.9416C112.96 40.9416 112.521 40.9416 112.191 40.9416C112.082 40.9416 112.082 40.9416 112.082 40.9964C112.082 41.0511 112.136 41.0511 112.191 41.0511C112.246 41.0511 112.356 41.0511 112.411 41.0511C112.63 41.1058 112.685 41.2152 112.685 41.4341C112.685 41.6529 112.685 41.8718 112.685 42.9114V43.7868C112.685 44.4982 112.685 45.1547 112.301 45.5377C112.027 45.8113 111.643 45.9208 111.368 45.9208C111.149 45.9208 110.819 45.9208 110.545 45.6472C110.216 45.3736 110.051 44.9359 110.051 43.951V42.9661C110.051 41.9265 110.051 41.7077 110.051 41.4888C110.051 41.2699 110.106 41.1605 110.27 41.1058C110.325 41.1058 110.38 41.1058 110.49 41.1058C110.545 41.1058 110.6 41.1058 110.6 41.0511C110.6 40.9964 110.545 40.9964 110.435 40.9964C110.216 40.9964 109.777 40.9964 109.612 40.9964C109.392 40.9964 109.008 40.9964 108.624 40.9964C108.514 40.9964 108.459 40.9964 108.459 41.0511C108.459 41.1058 108.514 41.1058 108.569 41.1058C108.679 41.1058 108.789 41.1058 108.844 41.1058C109.063 41.1605 109.118 41.2699 109.118 41.4888C109.118 41.7077 109.118 41.9265 109.118 42.9661V43.8963ZM104.508 43.951C104.453 43.951 104.453 43.8963 104.508 43.951L105.112 42.2001C105.112 42.2001 105.112 42.1454 105.166 42.1454C105.166 42.1454 105.166 42.2001 105.221 42.2001L105.825 43.8963C105.825 43.8963 105.825 43.951 105.77 43.951H104.508ZM105.88 44.2793C105.935 44.2793 105.935 44.2793 105.935 44.334L106.484 45.8113C106.538 45.9207 106.484 45.9755 106.429 45.9755C106.374 45.9755 106.319 45.9755 106.319 46.0302C106.319 46.0849 106.374 46.0849 106.538 46.0849C107.087 46.0849 107.581 46.0849 107.801 46.0849C108.075 46.0849 108.13 46.0849 108.13 46.0302C108.13 45.9755 108.075 45.9755 108.02 45.9755C107.965 45.9755 107.856 45.9755 107.746 45.9755C107.581 45.9208 107.417 45.866 107.142 45.2095C106.703 44.1699 105.66 41.3246 105.496 40.9416C105.441 40.7775 105.386 40.7228 105.331 40.7228C105.276 40.7228 105.221 40.7775 105.166 40.9964L103.465 45.3736C103.355 45.7019 103.191 45.9755 102.916 45.9755C102.861 45.9755 102.752 45.9755 102.697 45.9755C102.642 45.9755 102.642 45.9755 102.642 46.0302C102.642 46.0849 102.697 46.0849 102.752 46.0849C103.081 46.0849 103.465 46.0849 103.52 46.0849C103.739 46.0849 104.014 46.0849 104.233 46.0849C104.288 46.0849 104.343 46.0849 104.343 46.0302C104.343 45.9755 104.343 45.9755 104.233 45.9755H104.124C103.904 45.9755 103.849 45.866 103.849 45.7566C103.849 45.6472 103.904 45.483 103.959 45.3189L104.343 44.334C104.343 44.2793 104.343 44.2793 104.398 44.2793H105.88ZM99.1843 41.3247C99.1843 41.2699 99.1843 41.2152 99.2391 41.2152C99.294 41.2152 99.4038 41.1605 99.5684 41.1605C99.9526 41.1605 100.611 41.4341 100.611 42.419C100.611 42.9661 100.447 43.2944 100.227 43.4586C100.117 43.568 100.007 43.568 99.7331 43.568C99.5684 43.568 99.3489 43.568 99.2391 43.5133C99.1843 43.5133 99.1843 43.4585 99.1843 43.4038V41.3247ZM98.361 44.0604C98.361 44.717 98.361 45.2642 98.3061 45.5377C98.3061 45.7566 98.2513 45.866 98.0866 45.9208C98.0317 45.9208 97.922 45.9208 97.8671 45.9208C97.7573 45.9208 97.7573 45.9208 97.7573 45.9755C97.7573 46.0302 97.8122 46.0302 97.8671 46.0302C98.1415 46.0302 98.5806 46.0302 98.6903 46.0302C98.8001 46.0302 99.294 46.0302 99.6782 46.0302C99.788 46.0302 99.8428 46.0302 99.8428 45.9755C99.8428 45.9208 99.8428 45.9208 99.788 45.9208C99.7331 45.9208 99.5684 45.9208 99.4587 45.9208C99.2391 45.866 99.2391 45.7566 99.1843 45.5377C99.1294 45.2642 99.1294 44.717 99.1294 44.0604V43.951C99.1294 43.8963 99.1294 43.8963 99.1843 43.8963H99.788C99.8428 43.8963 99.8977 43.8963 99.8977 43.951C100.007 44.0604 100.282 44.5529 100.556 44.9359C100.94 45.483 101.16 45.8113 101.489 45.9755C101.654 46.0849 101.819 46.0849 102.203 46.0849H102.861C102.916 46.0849 102.971 46.0849 102.971 46.0302C102.971 45.9755 102.971 45.9755 102.916 45.9755C102.861 45.9755 102.806 45.9755 102.752 45.9755C102.642 45.9755 102.367 45.9207 101.983 45.5377C101.599 45.1 101.105 44.4981 100.501 43.7321C101.16 43.185 101.38 42.6925 101.38 42.2001C101.38 41.7624 101.105 41.3794 100.94 41.2699C100.556 40.9964 100.117 40.9964 99.7331 40.9964C99.5136 40.9964 99.0196 40.9964 98.8001 40.9964C98.6354 40.9964 98.2513 40.9964 97.8671 40.9964C97.7573 40.9964 97.7024 40.9964 97.7024 41.0511C97.7024 41.1058 97.7573 41.1058 97.8122 41.1058C97.922 41.1058 98.0317 41.1058 98.0866 41.1058C98.3061 41.1605 98.361 41.2699 98.361 41.4888C98.361 41.7077 98.361 41.9265 98.361 42.9661V44.0604ZM93.4216 43.951C93.4216 43.951 93.4216 43.8963 93.4216 43.951L94.0253 42.2001C94.0253 42.2001 94.0253 42.1454 94.0802 42.1454L94.1351 42.2001L94.7388 43.8963C94.7388 43.8963 94.7388 43.951 94.6839 43.951H93.4216ZM94.7937 44.2793C94.8486 44.2793 94.8486 44.2793 94.8486 44.334L95.3974 45.8113C95.4523 45.9207 95.3974 45.9755 95.3425 45.9755C95.2876 45.9755 95.2327 45.9755 95.2327 46.0302C95.2327 46.0849 95.2876 46.0849 95.4522 46.0849C96.0011 46.0849 96.495 46.0849 96.7146 46.0849C96.9341 46.0849 97.0439 46.0849 97.0439 46.0302C97.0439 45.9755 96.989 45.9755 96.9341 45.9755C96.8792 45.9755 96.7694 45.9755 96.6597 45.9755C96.495 45.9208 96.3304 45.866 96.056 45.2095C95.6169 44.1699 94.5741 41.3246 94.4095 40.9416C94.3546 40.7775 94.2997 40.7228 94.2448 40.7228C94.19 40.7228 94.1351 40.7775 94.0802 40.9964L92.3789 45.3736C92.2691 45.7019 92.1044 45.9755 91.83 45.9755C91.7751 45.9755 91.6654 45.9755 91.6105 45.9755C91.5556 45.9755 91.5007 45.9755 91.5007 46.0302C91.5007 46.0849 91.5556 46.0849 91.6105 46.0849C91.9947 46.0849 92.324 46.0849 92.4337 46.0849C92.6533 46.0849 92.9277 46.0849 93.1472 46.0849C93.2021 46.0849 93.257 46.0849 93.257 46.0302C93.257 45.9755 93.257 45.9755 93.1472 45.9755H93.0374C92.8179 45.9755 92.763 45.866 92.763 45.7566C92.763 45.6472 92.8179 45.483 92.8728 45.3189L93.257 44.334C93.257 44.2793 93.257 44.2793 93.3118 44.2793H94.7937Z" fill="white"/>
<path d="M85.0248 47.3981C83.5978 47.3981 82.4453 46.3037 82.4453 44.7717C82.4453 43.7868 82.9393 43.1303 83.5978 42.6925C83.982 43.185 84.8052 44.0604 85.1345 44.3887C85.4638 44.717 86.7261 45.9207 87.4945 46.4679C87.0554 46.9056 86.2322 47.3981 85.0248 47.3981ZM84.5857 47.9999C86.5066 47.9999 87.5494 46.9603 87.8238 46.6868C89.2507 47.7811 89.3605 47.5622 90.2935 47.6716L91.3911 47.7811C91.5009 47.7811 91.6106 47.7264 91.6106 47.6716C91.6106 47.6169 91.5558 47.6169 91.446 47.5622C91.0618 47.4528 90.7325 47.3981 90.2935 47.1792C89.9093 46.9603 89.1958 46.632 88.3726 45.9207C88.9214 45.2642 89.6349 44.0057 89.6349 43.0208C89.6349 42.9114 89.58 42.802 89.4154 42.7472C88.7568 42.5831 86.8908 42.7472 87.8787 42.8567C88.0433 42.8567 88.4275 42.9114 88.5921 43.0755C88.8116 43.2397 88.8117 43.5133 88.8117 43.6774C88.8117 44.4434 88.5372 45.2642 88.1531 45.7019C87.7689 45.3736 86.1773 43.951 85.7382 43.5133C84.3662 42.1454 83.7076 41.3246 83.7076 40.3398C83.7076 39.1907 84.3113 38.9172 85.0797 38.9172C85.6285 38.9172 86.1224 39.136 86.3968 39.4643C86.6712 39.7926 86.6713 40.2303 86.8908 40.6133C86.9457 40.8322 86.9456 39.4643 86.9456 39.1907C86.9456 39.0266 86.9457 38.9719 86.781 38.8624C86.4517 38.6983 86.0675 38.5341 85.409 38.5341C83.6527 38.5341 82.8844 39.6285 82.8844 40.6133C82.8844 41.1605 83.049 41.6529 83.543 42.3095C82.5551 42.8567 81.5672 43.8415 81.5672 45.2641C81.4574 46.3585 82.3355 47.9999 84.5857 47.9999Z" fill="white"/>
<path d="M42.7652 41.2153H42.3262V40.887H43.3689L42.9848 42.7473H43.0396C43.1494 42.5832 43.3141 42.419 43.4787 42.3096C43.6433 42.2001 43.8629 42.1454 44.1373 42.1454C44.3568 42.1454 44.5215 42.2001 44.6861 42.3643C44.7959 42.5284 44.9056 42.7473 44.9056 43.0756C44.9056 43.4039 44.8508 43.6775 44.7959 43.951C44.6861 44.2246 44.5763 44.4982 44.4117 44.6623C44.247 44.8812 44.0275 45.0454 43.808 45.1548C43.5885 45.2642 43.3141 45.3189 43.0396 45.3189C42.8201 45.3189 42.6555 45.3189 42.4359 45.2642C42.2164 45.2095 42.1066 45.1548 42.0518 45.0453L42.7652 41.2153ZM43.808 42.5284C43.6982 42.5284 43.6433 42.5284 43.5336 42.5831C43.4238 42.6379 43.3689 42.6379 43.3141 42.6926C43.2592 42.7473 43.1494 42.802 43.0945 42.8567C43.0396 42.9114 42.9848 42.9662 42.9848 43.0756L42.6006 44.9359C42.6555 44.9906 42.7652 44.9906 42.8201 44.9906C42.875 44.9906 42.9848 44.9906 43.0945 44.9906C43.2592 44.9906 43.4238 44.9359 43.5885 44.8265C43.7531 44.7171 43.8629 44.6076 43.9726 44.3888C44.0824 44.2246 44.1373 44.0058 44.1922 43.7869C44.247 43.568 44.3019 43.3492 44.3019 43.0756C44.3019 42.8567 44.247 42.7473 44.1922 42.5831C44.0824 42.5831 43.9726 42.5284 43.808 42.5284Z" fill="white"/>
<path d="M45.6191 42.5284H45.2898V42.2001H46.1679L46.607 44.6623V44.9906H46.6619L46.8265 44.6623C46.8814 44.4982 46.9363 44.334 47.046 44.1699C47.1009 44.0057 47.1558 43.8416 47.2656 43.6774C47.3204 43.5133 47.3753 43.3491 47.4302 43.185C47.4851 43.0208 47.54 42.8567 47.5949 42.7473L47.4302 42.2001H48.1437V42.5284C48.0888 42.6925 48.0339 42.9114 47.9241 43.1303C47.8144 43.3491 47.7595 43.6227 47.6497 43.8416C47.54 44.1151 47.4302 44.334 47.3204 44.6076C47.2107 44.8812 47.1009 45.1 46.9363 45.3736C46.8265 45.5925 46.6619 45.8113 46.5521 46.0302C46.4423 46.2491 46.3326 46.4132 46.2228 46.5226H45.5642V45.9755H46.2228C46.2777 45.9208 46.3326 45.8113 46.3874 45.7566C46.4423 45.6472 46.4972 45.5377 46.5521 45.3736H46.2777L45.6191 42.5284Z" fill="white"/>
<path d="M30.8557 10.0032L18.0077 0.714526C17.9046 0.66349 17.853 0.61244 17.7498 0.510367C17.2854 0.204147 16.7178 0 16.0986 0C15.4794 0 14.9119 0.204147 14.4475 0.510367C14.3443 0.561404 14.2927 0.612453 14.1895 0.714526L1.18676 10.1053C0.412787 10.6667 0 11.5853 0 12.453V30.7241C0 33.2759 2.11552 35.3684 4.69543 35.3684H27.3986C29.9785 35.3684 32.094 33.2759 32.094 30.7241V12.453C32.1456 11.4322 31.6297 10.5646 30.8557 10.0032ZM16.0986 10.0032C17.7498 10.0032 19.0913 11.3302 19.0913 12.9633C19.0913 14.5965 17.7498 15.9235 16.0986 15.9235C14.4475 15.9235 13.1059 14.5965 13.1059 12.9633C13.1059 11.3302 14.4475 10.0032 16.0986 10.0032ZM25.5411 20.5678L25.1799 20.925L17.337 28.6826L17.079 28.9378C16.821 29.142 16.4598 29.2951 16.0986 29.2951C15.7374 29.2951 15.3762 29.193 15.1183 28.9889L6.96575 20.925L6.65616 20.6188C6.44976 20.3637 6.34657 20.0064 6.34657 19.7002C6.34657 18.8325 7.06894 18.118 7.94611 18.118H24.2511C25.1283 18.118 25.8507 18.8325 25.8507 19.7002C25.8507 20.0064 25.7475 20.3126 25.5411 20.5678Z" fill="#F79548"/>
</svg>
